# xmcd CD database file
#
# Track frame offsets:
#	150
#	18417
#	33697
#	54275
#	72235
#	91150
#	112265
#	130105
#	148905
#	168845
#
# Disc length: 2446 seconds
#
# Revision: 0
# Processed by: cddbd v1.4PL0 Copyright (c) Steve Scherf et al.
# Submitted via: CDex 1.40Beta9
#
DISCID=89098c0a
DTITLE=Pam Mark Hall - Paler Shade
DYEAR=1993
DGENRE=Country
TTITLE0=Personal Rescue
TTITLE1=Today Is All That I Have
TTITLE2=Rock Me On the Water
TTITLE3=Paler Shade of You
TTITLE4=Love's Possibility
TTITLE5=All Right Now
TTITLE6=Family Tree
TTITLE7=On Your Side
TTITLE8=See Me Grow
TTITLE9=Shine On Me
EXTD=YEAR: 1993 ID3G: 2
EXTT0=
EXTT1=
EXTT2=
EXTT3=
EXTT4=
EXTT5=
EXTT6=
EXTT7=
EXTT8=
EXTT9=
PLAYORDER=
